<?xml version="1.0" encoding="UTF-8"?>
<!DOCTYPE svg PUBLIC "-//W3C//DTD SVG 1.1//EN" "http://www.w3.org/Graphics/SVG/1.1/DTD/svg11.dtd">
<!-- Creator: CorelDRAW -->
<svg xmlns="http://www.w3.org/2000/svg" xml:space="preserve" width="210mm" height="297mm" version="1.1" style="shape-rendering:geometricPrecision; text-rendering:geometricPrecision; image-rendering:optimizeQuality; fill-rule:evenodd; clip-rule:evenodd"
viewBox="0 0 21000 29700"
 xmlns:xlink="http://www.w3.org/1999/xlink"
 xmlns:xodm="http://www.corel.com/coreldraw/odm/2003">
 <defs>
  <style type="text/css">
   <![CDATA[
    .str0 {stroke:#201E1E;stroke-width:17.64;stroke-linecap:round;stroke-linejoin:round;stroke-miterlimit:22.9256}
    .fil0 {fill:#201E1E}
   ]]>
  </style>
 </defs>
 <g id="Camada_x0020_1">
  <metadata id="CorelCorpID_0Corel-Layer"/>
  <path class="fil0 str0" d="M5121.11 9102.68c620.24,1594.18 532.37,2586.6 -984.77,2827.1 -425.94,-2038.28 -2449.57,-2743.95 -2546.7,-4316.66 -62.07,-1004.83 172.05,-1388.78 552.3,-2209.27 -44.78,2162.39 509.64,2773.97 1104.63,3280.42 -199.3,-591.84 -630.99,-1151.9 -597.87,-1775.49 123.13,-2318.48 2015.28,-2953.61 3983.8,-3123.49 1345.02,-116.07 4392.76,227.51 6254.47,-373.12 -321.45,451.78 -739.51,742.38 -1255.25,870.31 2469.61,195.72 4889.48,-734.58 7247.04,-3079.57 -89.85,1443.52 -630.29,2917.06 -1841.07,4435.26 994.03,-259.29 1626.32,-1104.67 2106.62,-1986.28 323.06,994.18 368.31,2924.66 15.56,4110.7 -417.32,1403.07 -1623.29,1651.02 -2205.84,3130.94 252.24,-185.64 560.85,-377.73 1071.15,-485.38 -800.16,642.53 -1254.93,1270.85 -1144.13,1703.17 -598.26,214.35 -1202.04,-98.12 -1158.95,-695 52.03,-720.64 413.1,-1494.17 580.46,-2197.13 -1185.77,1056.34 -2383.04,2175.47 -3857.8,2149.94 -811.54,-14.06 -2039.54,-142.85 -2620.63,-743.4 242.67,660.57 689.96,1102.98 1456.13,1205.03 -1774.18,271.7 -2805,-609.17 -3916.41,-1757.37 253.66,775.43 770.94,1502.06 2025.13,2092.13 -2574.43,-283.44 -3119.28,-2422.79 -4267.87,-3062.84zm-443.9 8654.45c41.95,147.46 -43.6,301.08 -191.07,343.02 -147.46,41.95 -301.08,-43.6 -343.02,-191.07 -153.81,-538.86 -274.62,-1104.71 -358.47,-1692.25 -542.14,314.07 -895.56,872.48 -893.12,1400.82 5.63,1211.34 1010.73,2214.98 2576.2,1828.74 -1514.35,-223.53 -1915.12,-961.14 -1844.69,-1987.78 102.68,578.25 659.19,1356.94 1622.03,1351.71 1503.47,-8.2 1937.29,-1753.75 3323.58,-1956 -380.8,275.52 -90.95,846.84 206.75,858.73 565.45,22.61 702.16,236.88 970.04,747.42 128.56,245.11 391.12,362.17 747.42,362.17 356.3,0 618.86,-117.06 747.42,-362.17 267.88,-510.54 404.59,-724.81 970.05,-747.42 297.69,-11.89 587.54,-583.21 206.74,-858.73 1386.29,202.25 1820.11,1947.8 3323.58,1956 962.84,5.23 1519.35,-773.46 1622.03,-1351.71 70.43,1026.64 -330.34,1764.25 -1844.69,1987.78 1565.47,386.24 2570.57,-617.4 2576.2,-1828.74 2.44,-525.35 -346.93,-1080.44 -883.86,-1395.51 -89.1,636.35 -223.57,1249.5 -399.2,1832.91 -43.76,146.88 -198.31,230.46 -345.19,186.7 -146.88,-43.76 -230.46,-198.32 -186.7,-345.19 168.9,-561 297.73,-1148.43 382.54,-1755.87 6.06,-43.37 11.89,-86.85 17.48,-130.41 -117.65,-27.1 -240.06,-43.17 -366.14,-46.48 129.97,-7.09 253.85,-7.45 372.25,-1.69 67.79,-542.89 101.07,-1100.58 97.25,-1668.67 -1.77,-262.48 -9.97,-527.76 -25.53,-796.03 -14.88,-256.69 -37.45,-514.56 -68.61,-773.61 -17.96,-152.23 90.91,-290.33 243.14,-308.29 152.24,-17.96 290.33,90.91 308.29,243.14 31.43,261.1 54.71,530.99 70.82,808.36 15.44,265.71 23.63,540.99 25.52,824.23 4.02,599.36 -30.96,1184.7 -102.13,1751.53 884.1,230.93 1356.08,919.9 1575.67,1892.9 119.42,-227.66 86.57,-698.98 -79.53,-1383.5 987.57,2157.12 311.56,3781.15 -1351.67,5088.75 696.62,-131.04 1284.28,-448.75 1781.04,-922.35 -692.08,1121.38 -1566.41,1724.56 -2441.33,1965.06 114.66,803.43 -26.16,1584.77 -351.93,2346.02 -216.52,505.89 -818.4,665.77 -935.58,881.81 -240.19,442.76 130.53,947.36 -1288.45,1826.49 -731.2,453 -1642.32,760.19 -3649.48,760.19 -2007.16,0 -2918.28,-307.19 -3649.48,-760.19 -1418.98,-879.13 -1048.26,-1383.73 -1288.45,-1826.49 -117.18,-216.04 -719.06,-375.92 -935.58,-881.81 -325.77,-761.25 -466.58,-1542.59 -351.93,-2346.02 -874.92,-240.5 -1749.25,-843.68 -2441.33,-1965.06 496.76,473.6 1084.42,791.31 1781.04,922.35 -1663.23,-1307.6 -2339.24,-2931.63 -1351.67,-5088.75 -166.1,684.52 -198.95,1155.84 -79.53,1383.5 220.34,-976.31 694.88,-1666.62 1584.73,-1895.18 -73.73,-570.1 -112.29,-1154.58 -112.29,-1748.15 0,-315.93 11.22,-632.92 33.04,-949.76 21.82,-316.13 54.67,-629.1 97.84,-937.74 20.96,-151.69 160.98,-257.6 312.66,-236.65 151.68,20.96 257.6,160.98 236.64,312.67 -41.04,293.39 -72.43,593.25 -93.5,898.67 -20.37,295.68 -30.84,600.19 -30.84,912.81 0,573.45 36.15,1131.37 105.16,1669.33 115.64,-5.32 236.56,-4.76 363.24,2.13 -122.89,3.23 -242.28,18.63 -357.17,44.51l7.32 54.71c79.8,584.04 199.38,1150.79 354.45,1694.11zm5815.65 2454.8c-1472.12,0 -1735.74,1688.83 -3724.94,2346.09 707.6,410.58 1360.49,616.07 1664.21,331.69 575.02,862.83 731.2,-550.01 1427.77,-646.71 221.99,-30.8 344.8,176.38 632.96,176.38 288.16,0 410.97,-207.18 632.96,-176.38 696.58,96.7 852.75,1509.54 1427.77,646.71 303.72,284.38 956.61,78.89 1664.21,-331.69 -1989.2,-657.26 -2252.82,-2346.09 -3724.94,-2346.09z"/>
 </g>
</svg>
